<mxfile host="app.diagrams.net" modified="2021-02-24T19:15:16.102Z" agent="5.0 (Windows NT 10.0; Win64; x64) AppleWebKit/537.36 (KHTML, like Gecko) Chrome/88.0.4324.182 Safari/537.36" etag="Qj1cD8F9IdEH3SRUPvea" version="14.4.2" type="github">
  <diagram id="C5RBs43oDa-KdzZeNtuy" name="Page-1">
    <mxGraphModel dx="1360" dy="834" grid="1" gridSize="10" guides="1" tooltips="1" connect="1" arrows="1" fold="1" page="1" pageScale="1" pageWidth="827" pageHeight="1169" math="0" shadow="0">
      <root>
        <mxCell id="WIyWlLk6GJQsqaUBKTNV-0" />
        <mxCell id="WIyWlLk6GJQsqaUBKTNV-1" parent="WIyWlLk6GJQsqaUBKTNV-0" />
        <mxCell id="WIyWlLk6GJQsqaUBKTNV-3" value="начало" style="rounded=1;whiteSpace=wrap;html=1;fontSize=12;glass=0;strokeWidth=1;shadow=0;arcSize=50;" parent="WIyWlLk6GJQsqaUBKTNV-1" vertex="1">
          <mxGeometry x="160" y="80" width="120" height="40" as="geometry" />
        </mxCell>
        <mxCell id="WIyWlLk6GJQsqaUBKTNV-6" value="p != null" style="rhombus;whiteSpace=wrap;html=1;shadow=0;fontFamily=Helvetica;fontSize=12;align=center;strokeWidth=1;spacing=6;spacingTop=-4;" parent="WIyWlLk6GJQsqaUBKTNV-1" vertex="1">
          <mxGeometry x="160" y="380" width="120" height="80" as="geometry" />
        </mxCell>
        <mxCell id="WIyWlLk6GJQsqaUBKTNV-11" value="конец" style="rounded=1;whiteSpace=wrap;html=1;fontSize=12;glass=0;strokeWidth=1;shadow=0;arcSize=50;" parent="WIyWlLk6GJQsqaUBKTNV-1" vertex="1">
          <mxGeometry x="160" y="1090" width="120" height="40" as="geometry" />
        </mxCell>
        <mxCell id="_gr6Upn1tPUoESkPQy8E-13" value="" style="edgeStyle=orthogonalEdgeStyle;rounded=0;orthogonalLoop=1;jettySize=auto;html=1;" edge="1" parent="WIyWlLk6GJQsqaUBKTNV-1" source="_gr6Upn1tPUoESkPQy8E-0" target="_gr6Upn1tPUoESkPQy8E-2">
          <mxGeometry relative="1" as="geometry" />
        </mxCell>
        <mxCell id="_gr6Upn1tPUoESkPQy8E-0" value="вывести: &lt;br&gt;&quot;введите логин:&quot;" style="shape=parallelogram;perimeter=parallelogramPerimeter;whiteSpace=wrap;html=1;fixedSize=1;" vertex="1" parent="WIyWlLk6GJQsqaUBKTNV-1">
          <mxGeometry x="140" y="140" width="160" height="60" as="geometry" />
        </mxCell>
        <mxCell id="_gr6Upn1tPUoESkPQy8E-1" value="" style="rounded=0;html=1;jettySize=auto;orthogonalLoop=1;fontSize=11;endArrow=classic;endFill=1;endSize=6;strokeWidth=1;shadow=0;labelBackgroundColor=none;edgeStyle=orthogonalEdgeStyle;" edge="1" parent="WIyWlLk6GJQsqaUBKTNV-1" source="WIyWlLk6GJQsqaUBKTNV-3" target="_gr6Upn1tPUoESkPQy8E-0">
          <mxGeometry relative="1" as="geometry">
            <mxPoint x="220" y="120" as="sourcePoint" />
            <mxPoint x="220" y="240" as="targetPoint" />
          </mxGeometry>
        </mxCell>
        <mxCell id="_gr6Upn1tPUoESkPQy8E-14" value="" style="edgeStyle=orthogonalEdgeStyle;rounded=0;orthogonalLoop=1;jettySize=auto;html=1;" edge="1" parent="WIyWlLk6GJQsqaUBKTNV-1" source="_gr6Upn1tPUoESkPQy8E-2" target="_gr6Upn1tPUoESkPQy8E-3">
          <mxGeometry relative="1" as="geometry" />
        </mxCell>
        <mxCell id="_gr6Upn1tPUoESkPQy8E-2" value="считать login" style="shape=parallelogram;perimeter=parallelogramPerimeter;whiteSpace=wrap;html=1;fixedSize=1;" vertex="1" parent="WIyWlLk6GJQsqaUBKTNV-1">
          <mxGeometry x="140" y="220" width="160" height="60" as="geometry" />
        </mxCell>
        <mxCell id="_gr6Upn1tPUoESkPQy8E-15" value="" style="edgeStyle=none;rounded=0;orthogonalLoop=1;jettySize=auto;html=1;endArrow=classic;endFill=1;endSize=6;" edge="1" parent="WIyWlLk6GJQsqaUBKTNV-1" source="_gr6Upn1tPUoESkPQy8E-3" target="WIyWlLk6GJQsqaUBKTNV-6">
          <mxGeometry relative="1" as="geometry" />
        </mxCell>
        <mxCell id="_gr6Upn1tPUoESkPQy8E-3" value="инициализация p элементом списка, соответствующего введенному логину" style="rounded=0;whiteSpace=wrap;html=1;" vertex="1" parent="WIyWlLk6GJQsqaUBKTNV-1">
          <mxGeometry x="140" y="300" width="160" height="60" as="geometry" />
        </mxCell>
        <mxCell id="_gr6Upn1tPUoESkPQy8E-49" style="edgeStyle=none;rounded=0;sketch=0;orthogonalLoop=1;jettySize=auto;html=1;shadow=0;endArrow=classic;endFill=1;endSize=6;" edge="1" parent="WIyWlLk6GJQsqaUBKTNV-1" source="_gr6Upn1tPUoESkPQy8E-4">
          <mxGeometry relative="1" as="geometry">
            <mxPoint x="220" y="1070" as="targetPoint" />
            <Array as="points">
              <mxPoint x="640" y="420" />
              <mxPoint x="640" y="1070" />
            </Array>
          </mxGeometry>
        </mxCell>
        <mxCell id="_gr6Upn1tPUoESkPQy8E-4" value="вывести &lt;br&gt;&quot;К сожалению, Вы не в списке&quot;" style="shape=parallelogram;perimeter=parallelogramPerimeter;whiteSpace=wrap;html=1;fixedSize=1;" vertex="1" parent="WIyWlLk6GJQsqaUBKTNV-1">
          <mxGeometry x="360" y="390" width="240" height="60" as="geometry" />
        </mxCell>
        <mxCell id="_gr6Upn1tPUoESkPQy8E-10" value="" style="edgeStyle=orthogonalEdgeStyle;rounded=0;orthogonalLoop=1;jettySize=auto;html=1;" edge="1" parent="WIyWlLk6GJQsqaUBKTNV-1" source="_gr6Upn1tPUoESkPQy8E-6" target="_gr6Upn1tPUoESkPQy8E-9">
          <mxGeometry relative="1" as="geometry" />
        </mxCell>
        <mxCell id="_gr6Upn1tPUoESkPQy8E-6" value="вывести меню" style="shape=parallelogram;perimeter=parallelogramPerimeter;whiteSpace=wrap;html=1;fixedSize=1;" vertex="1" parent="WIyWlLk6GJQsqaUBKTNV-1">
          <mxGeometry x="160" y="490" width="120" height="60" as="geometry" />
        </mxCell>
        <mxCell id="_gr6Upn1tPUoESkPQy8E-26" value="" style="edgeStyle=none;rounded=0;sketch=0;orthogonalLoop=1;jettySize=auto;html=1;shadow=0;endArrow=classic;endFill=1;endSize=6;" edge="1" parent="WIyWlLk6GJQsqaUBKTNV-1" source="_gr6Upn1tPUoESkPQy8E-9" target="_gr6Upn1tPUoESkPQy8E-25">
          <mxGeometry relative="1" as="geometry" />
        </mxCell>
        <mxCell id="_gr6Upn1tPUoESkPQy8E-9" value="считать номер пункта в i" style="shape=parallelogram;perimeter=parallelogramPerimeter;whiteSpace=wrap;html=1;fixedSize=1;" vertex="1" parent="WIyWlLk6GJQsqaUBKTNV-1">
          <mxGeometry x="160" y="570" width="120" height="60" as="geometry" />
        </mxCell>
        <mxCell id="_gr6Upn1tPUoESkPQy8E-21" value="" style="endArrow=classic;html=1;shadow=0;" edge="1" parent="WIyWlLk6GJQsqaUBKTNV-1" target="_gr6Upn1tPUoESkPQy8E-4">
          <mxGeometry relative="1" as="geometry">
            <mxPoint x="280" y="420" as="sourcePoint" />
            <mxPoint x="370" y="420" as="targetPoint" />
            <Array as="points">
              <mxPoint x="370" y="420" />
            </Array>
          </mxGeometry>
        </mxCell>
        <mxCell id="_gr6Upn1tPUoESkPQy8E-22" value="&amp;nbsp;нет&amp;nbsp;" style="edgeLabel;resizable=0;html=1;align=center;verticalAlign=middle;" connectable="0" vertex="1" parent="_gr6Upn1tPUoESkPQy8E-21">
          <mxGeometry relative="1" as="geometry" />
        </mxCell>
        <mxCell id="_gr6Upn1tPUoESkPQy8E-23" value="" style="endArrow=classic;html=1;shadow=0;entryX=0.5;entryY=0;entryDx=0;entryDy=0;" edge="1" parent="WIyWlLk6GJQsqaUBKTNV-1" target="_gr6Upn1tPUoESkPQy8E-6">
          <mxGeometry relative="1" as="geometry">
            <mxPoint x="220" y="460" as="sourcePoint" />
            <mxPoint x="320" y="460" as="targetPoint" />
          </mxGeometry>
        </mxCell>
        <mxCell id="_gr6Upn1tPUoESkPQy8E-24" value="&amp;nbsp;да&amp;nbsp;" style="edgeLabel;resizable=0;html=1;align=center;verticalAlign=middle;" connectable="0" vertex="1" parent="_gr6Upn1tPUoESkPQy8E-23">
          <mxGeometry relative="1" as="geometry">
            <mxPoint y="-5" as="offset" />
          </mxGeometry>
        </mxCell>
        <mxCell id="_gr6Upn1tPUoESkPQy8E-25" value="есть такой пункт" style="rhombus;whiteSpace=wrap;html=1;" vertex="1" parent="WIyWlLk6GJQsqaUBKTNV-1">
          <mxGeometry x="160" y="650" width="120" height="80" as="geometry" />
        </mxCell>
        <mxCell id="_gr6Upn1tPUoESkPQy8E-27" value="" style="endArrow=classic;html=1;shadow=0;exitX=1;exitY=0.5;exitDx=0;exitDy=0;" edge="1" parent="WIyWlLk6GJQsqaUBKTNV-1" source="_gr6Upn1tPUoESkPQy8E-25" target="_gr6Upn1tPUoESkPQy8E-29">
          <mxGeometry relative="1" as="geometry">
            <mxPoint x="280" y="709.5" as="sourcePoint" />
            <mxPoint x="380" y="709.5" as="targetPoint" />
          </mxGeometry>
        </mxCell>
        <mxCell id="_gr6Upn1tPUoESkPQy8E-28" value="&amp;nbsp;нет&amp;nbsp;" style="edgeLabel;resizable=0;html=1;align=center;verticalAlign=middle;" connectable="0" vertex="1" parent="_gr6Upn1tPUoESkPQy8E-27">
          <mxGeometry relative="1" as="geometry" />
        </mxCell>
        <mxCell id="_gr6Upn1tPUoESkPQy8E-45" style="edgeStyle=none;rounded=0;sketch=0;orthogonalLoop=1;jettySize=auto;html=1;shadow=0;endArrow=classic;endFill=1;endSize=6;exitX=1;exitY=0.5;exitDx=0;exitDy=0;" edge="1" parent="WIyWlLk6GJQsqaUBKTNV-1" source="_gr6Upn1tPUoESkPQy8E-29">
          <mxGeometry relative="1" as="geometry">
            <mxPoint x="220" y="980" as="targetPoint" />
            <Array as="points">
              <mxPoint x="560" y="690" />
              <mxPoint x="560" y="980" />
            </Array>
          </mxGeometry>
        </mxCell>
        <mxCell id="_gr6Upn1tPUoESkPQy8E-29" value="вывести &quot;указанное невыполнимо&quot;" style="shape=parallelogram;perimeter=parallelogramPerimeter;whiteSpace=wrap;html=1;fixedSize=1;" vertex="1" parent="WIyWlLk6GJQsqaUBKTNV-1">
          <mxGeometry x="370" y="660" width="160" height="60" as="geometry" />
        </mxCell>
        <mxCell id="_gr6Upn1tPUoESkPQy8E-30" value="" style="endArrow=classic;html=1;shadow=0;entryX=0.5;entryY=0;entryDx=0;entryDy=0;exitX=0.5;exitY=1;exitDx=0;exitDy=0;" edge="1" parent="WIyWlLk6GJQsqaUBKTNV-1" source="_gr6Upn1tPUoESkPQy8E-25" target="_gr6Upn1tPUoESkPQy8E-33">
          <mxGeometry relative="1" as="geometry">
            <mxPoint x="219.5" y="750" as="sourcePoint" />
            <mxPoint x="220" y="830" as="targetPoint" />
          </mxGeometry>
        </mxCell>
        <mxCell id="_gr6Upn1tPUoESkPQy8E-31" value="&amp;nbsp;да&amp;nbsp;" style="edgeLabel;resizable=0;html=1;align=center;verticalAlign=middle;" connectable="0" vertex="1" parent="_gr6Upn1tPUoESkPQy8E-30">
          <mxGeometry relative="1" as="geometry">
            <mxPoint y="-5" as="offset" />
          </mxGeometry>
        </mxCell>
        <mxCell id="_gr6Upn1tPUoESkPQy8E-44" value="" style="edgeStyle=none;rounded=0;sketch=0;orthogonalLoop=1;jettySize=auto;html=1;shadow=0;endArrow=classic;endFill=1;endSize=6;" edge="1" parent="WIyWlLk6GJQsqaUBKTNV-1" source="_gr6Upn1tPUoESkPQy8E-32" target="_gr6Upn1tPUoESkPQy8E-42">
          <mxGeometry relative="1" as="geometry" />
        </mxCell>
        <mxCell id="_gr6Upn1tPUoESkPQy8E-32" value="выполнить" style="rounded=0;whiteSpace=wrap;html=1;" vertex="1" parent="WIyWlLk6GJQsqaUBKTNV-1">
          <mxGeometry x="160" y="900" width="120" height="60" as="geometry" />
        </mxCell>
        <mxCell id="_gr6Upn1tPUoESkPQy8E-33" value="есть премиум-подписка" style="rhombus;whiteSpace=wrap;html=1;" vertex="1" parent="WIyWlLk6GJQsqaUBKTNV-1">
          <mxGeometry x="160" y="760" width="120" height="80" as="geometry" />
        </mxCell>
        <mxCell id="_gr6Upn1tPUoESkPQy8E-41" style="edgeStyle=none;rounded=0;sketch=0;orthogonalLoop=1;jettySize=auto;html=1;shadow=0;endArrow=classic;endFill=1;endSize=6;exitX=1;exitY=0.5;exitDx=0;exitDy=0;" edge="1" parent="WIyWlLk6GJQsqaUBKTNV-1" source="_gr6Upn1tPUoESkPQy8E-35">
          <mxGeometry relative="1" as="geometry">
            <mxPoint x="220" y="880" as="targetPoint" />
            <Array as="points">
              <mxPoint x="480" y="800" />
              <mxPoint x="480" y="880" />
            </Array>
          </mxGeometry>
        </mxCell>
        <mxCell id="_gr6Upn1tPUoESkPQy8E-36" value="" style="endArrow=classic;html=1;shadow=0;entryX=0;entryY=0.5;entryDx=0;entryDy=0;" edge="1" parent="WIyWlLk6GJQsqaUBKTNV-1" target="_gr6Upn1tPUoESkPQy8E-35">
          <mxGeometry relative="1" as="geometry">
            <mxPoint x="280" y="799.5" as="sourcePoint" />
            <mxPoint x="380" y="799.5" as="targetPoint" />
            <Array as="points">
              <mxPoint x="330" y="800" />
            </Array>
          </mxGeometry>
        </mxCell>
        <mxCell id="_gr6Upn1tPUoESkPQy8E-37" value="&amp;nbsp;нет&amp;nbsp;" style="edgeLabel;resizable=0;html=1;align=center;verticalAlign=middle;" connectable="0" vertex="1" parent="_gr6Upn1tPUoESkPQy8E-36">
          <mxGeometry relative="1" as="geometry" />
        </mxCell>
        <mxCell id="_gr6Upn1tPUoESkPQy8E-38" value="" style="endArrow=classic;html=1;shadow=0;entryX=0.5;entryY=0;entryDx=0;entryDy=0;" edge="1" parent="WIyWlLk6GJQsqaUBKTNV-1" target="_gr6Upn1tPUoESkPQy8E-32">
          <mxGeometry relative="1" as="geometry">
            <mxPoint x="220" y="840" as="sourcePoint" />
            <mxPoint x="320" y="840" as="targetPoint" />
          </mxGeometry>
        </mxCell>
        <mxCell id="_gr6Upn1tPUoESkPQy8E-39" value="&amp;nbsp;да&amp;nbsp;" style="edgeLabel;resizable=0;html=1;align=center;verticalAlign=middle;" connectable="0" vertex="1" parent="_gr6Upn1tPUoESkPQy8E-38">
          <mxGeometry relative="1" as="geometry">
            <mxPoint y="-5" as="offset" />
          </mxGeometry>
        </mxCell>
        <mxCell id="_gr6Upn1tPUoESkPQy8E-43" style="edgeStyle=none;rounded=0;sketch=0;orthogonalLoop=1;jettySize=auto;html=1;entryX=0.067;entryY=0.4;entryDx=0;entryDy=0;entryPerimeter=0;shadow=0;endArrow=classic;endFill=1;endSize=6;" edge="1" parent="WIyWlLk6GJQsqaUBKTNV-1" source="_gr6Upn1tPUoESkPQy8E-42" target="_gr6Upn1tPUoESkPQy8E-6">
          <mxGeometry relative="1" as="geometry">
            <Array as="points">
              <mxPoint x="80" y="1015" />
              <mxPoint x="80" y="514" />
            </Array>
          </mxGeometry>
        </mxCell>
        <mxCell id="_gr6Upn1tPUoESkPQy8E-46" style="edgeStyle=none;rounded=0;sketch=0;orthogonalLoop=1;jettySize=auto;html=1;entryX=0.5;entryY=0;entryDx=0;entryDy=0;shadow=0;endArrow=classic;endFill=1;endSize=6;" edge="1" parent="WIyWlLk6GJQsqaUBKTNV-1" source="_gr6Upn1tPUoESkPQy8E-42" target="WIyWlLk6GJQsqaUBKTNV-11">
          <mxGeometry relative="1" as="geometry">
            <Array as="points">
              <mxPoint x="310" y="1015" />
              <mxPoint x="310" y="1050" />
              <mxPoint x="220" y="1050" />
            </Array>
          </mxGeometry>
        </mxCell>
        <mxCell id="_gr6Upn1tPUoESkPQy8E-42" value="while (i != 0)" style="shape=hexagon;perimeter=hexagonPerimeter2;whiteSpace=wrap;html=1;fixedSize=1;" vertex="1" parent="WIyWlLk6GJQsqaUBKTNV-1">
          <mxGeometry x="160" y="1000" width="120" height="30" as="geometry" />
        </mxCell>
        <mxCell id="_gr6Upn1tPUoESkPQy8E-35" value="вывести &lt;br&gt;рекламные сообщения" style="shape=parallelogram;perimeter=parallelogramPerimeter;whiteSpace=wrap;html=1;fixedSize=1;" vertex="1" parent="WIyWlLk6GJQsqaUBKTNV-1">
          <mxGeometry x="330" y="770" width="120" height="60" as="geometry" />
        </mxCell>
      </root>
    </mxGraphModel>
  </diagram>
</mxfile>
